<mxfile host="app.diagrams.net" modified="2021-10-05T15:40:11.464Z" agent="5.0 (Macintosh; Intel Mac OS X 10_15_7) AppleWebKit/537.36 (KHTML, like Gecko) Chrome/94.0.4606.71 Safari/537.36" etag="UL_Hs6x4zQdzJ94W_xaY" version="14.9.9" type="github">
  <diagram id="SSpC0EXGSiDSEJ2Le8xc" name="Page-1">
    <mxGraphModel dx="862" dy="360" grid="1" gridSize="10" guides="1" tooltips="1" connect="1" arrows="1" fold="1" page="1" pageScale="1" pageWidth="850" pageHeight="1100" math="0" shadow="0">
      <root>
        <mxCell id="0" />
        <mxCell id="1" parent="0" />
        <mxCell id="zn88MTEEG8YuF1IfX-i7-25" value="S3&lt;br&gt;" style="shape=cylinder3;whiteSpace=wrap;html=1;boundedLbl=1;backgroundOutline=1;size=15;fillColor=none;labelPosition=center;verticalLabelPosition=bottom;align=center;verticalAlign=top;" vertex="1" parent="1">
          <mxGeometry x="30" y="280" width="677.5" height="180" as="geometry" />
        </mxCell>
        <mxCell id="zn88MTEEG8YuF1IfX-i7-3" value="zipcode generator Task" style="rounded=0;whiteSpace=wrap;html=1;" vertex="1" parent="1">
          <mxGeometry x="150" y="190" width="120" height="60" as="geometry" />
        </mxCell>
        <mxCell id="zn88MTEEG8YuF1IfX-i7-4" value="city_data (From Sunny)" style="shape=note;whiteSpace=wrap;html=1;backgroundOutline=1;darkOpacity=0.05;" vertex="1" parent="1">
          <mxGeometry x="70" y="330" width="80" height="100" as="geometry" />
        </mxCell>
        <mxCell id="zn88MTEEG8YuF1IfX-i7-5" value="" style="endArrow=classic;startArrow=classic;html=1;entryX=0.5;entryY=1;entryDx=0;entryDy=0;exitX=0.5;exitY=0;exitDx=0;exitDy=0;exitPerimeter=0;" edge="1" parent="1" source="zn88MTEEG8YuF1IfX-i7-4" target="zn88MTEEG8YuF1IfX-i7-3">
          <mxGeometry width="50" height="50" relative="1" as="geometry">
            <mxPoint x="120" y="310" as="sourcePoint" />
            <mxPoint x="170" y="260" as="targetPoint" />
          </mxGeometry>
        </mxCell>
        <mxCell id="zn88MTEEG8YuF1IfX-i7-7" value="Airflow scheduler" style="rounded=1;whiteSpace=wrap;html=1;fillColor=none;" vertex="1" parent="1">
          <mxGeometry x="210" y="50" width="120" height="60" as="geometry" />
        </mxCell>
        <mxCell id="zn88MTEEG8YuF1IfX-i7-8" value="" style="endArrow=classic;html=1;exitX=0.683;exitY=0.983;exitDx=0;exitDy=0;exitPerimeter=0;entryX=1;entryY=0.656;entryDx=0;entryDy=0;entryPerimeter=0;" edge="1" parent="1" source="zn88MTEEG8YuF1IfX-i7-3" target="zn88MTEEG8YuF1IfX-i7-10">
          <mxGeometry width="50" height="50" relative="1" as="geometry">
            <mxPoint x="220" y="380" as="sourcePoint" />
            <mxPoint x="300" y="290" as="targetPoint" />
          </mxGeometry>
        </mxCell>
        <mxCell id="zn88MTEEG8YuF1IfX-i7-10" value="zip_codes" style="shape=note;whiteSpace=wrap;html=1;backgroundOutline=1;darkOpacity=0.05;fillColor=none;direction=north;flipH=1;" vertex="1" parent="1">
          <mxGeometry x="210" y="340" width="80" height="95" as="geometry" />
        </mxCell>
        <mxCell id="zn88MTEEG8YuF1IfX-i7-11" value="propmix geo mls list generator" style="rounded=0;whiteSpace=wrap;html=1;fillColor=none;" vertex="1" parent="1">
          <mxGeometry x="320" y="190" width="120" height="60" as="geometry" />
        </mxCell>
        <mxCell id="zn88MTEEG8YuF1IfX-i7-14" value="mls_listing_ids" style="shape=note;whiteSpace=wrap;html=1;backgroundOutline=1;darkOpacity=0.05;fillColor=none;" vertex="1" parent="1">
          <mxGeometry x="470" y="343.75" width="80" height="96.25" as="geometry" />
        </mxCell>
        <mxCell id="zn88MTEEG8YuF1IfX-i7-15" value="" style="endArrow=classic;startArrow=classic;html=1;exitX=0;exitY=0;exitDx=95;exitDy=30;exitPerimeter=0;entryX=0.5;entryY=1;entryDx=0;entryDy=0;" edge="1" parent="1" source="zn88MTEEG8YuF1IfX-i7-10" target="zn88MTEEG8YuF1IfX-i7-11">
          <mxGeometry width="50" height="50" relative="1" as="geometry">
            <mxPoint x="360" y="300" as="sourcePoint" />
            <mxPoint x="410" y="250" as="targetPoint" />
          </mxGeometry>
        </mxCell>
        <mxCell id="zn88MTEEG8YuF1IfX-i7-18" value="" style="endArrow=classic;html=1;exitX=0.75;exitY=1;exitDx=0;exitDy=0;entryX=0.1;entryY=0.021;entryDx=0;entryDy=0;entryPerimeter=0;" edge="1" parent="1" source="zn88MTEEG8YuF1IfX-i7-11" target="zn88MTEEG8YuF1IfX-i7-14">
          <mxGeometry width="50" height="50" relative="1" as="geometry">
            <mxPoint x="220" y="280" as="sourcePoint" />
            <mxPoint x="270" y="230" as="targetPoint" />
          </mxGeometry>
        </mxCell>
        <mxCell id="zn88MTEEG8YuF1IfX-i7-19" value="" style="endArrow=classic;html=1;exitX=0.75;exitY=1;exitDx=0;exitDy=0;" edge="1" parent="1" source="zn88MTEEG8YuF1IfX-i7-11" target="zn88MTEEG8YuF1IfX-i7-20">
          <mxGeometry width="50" height="50" relative="1" as="geometry">
            <mxPoint x="220" y="280" as="sourcePoint" />
            <mxPoint x="480" y="420" as="targetPoint" />
          </mxGeometry>
        </mxCell>
        <mxCell id="zn88MTEEG8YuF1IfX-i7-20" value="geo_mls_api_data" style="shape=note;whiteSpace=wrap;html=1;backgroundOutline=1;darkOpacity=0.05;fillColor=none;" vertex="1" parent="1">
          <mxGeometry x="370" y="340" width="80" height="100" as="geometry" />
        </mxCell>
        <mxCell id="zn88MTEEG8YuF1IfX-i7-21" value="propmix mls listing details generator" style="rounded=0;whiteSpace=wrap;html=1;fillColor=none;" vertex="1" parent="1">
          <mxGeometry x="520" y="190" width="120" height="60" as="geometry" />
        </mxCell>
        <mxCell id="zn88MTEEG8YuF1IfX-i7-22" value="" style="endArrow=classic;html=1;exitX=0.25;exitY=1;exitDx=0;exitDy=0;" edge="1" parent="1" source="zn88MTEEG8YuF1IfX-i7-7" target="zn88MTEEG8YuF1IfX-i7-3">
          <mxGeometry width="50" height="50" relative="1" as="geometry">
            <mxPoint x="260" y="120" as="sourcePoint" />
            <mxPoint x="270" y="100" as="targetPoint" />
          </mxGeometry>
        </mxCell>
        <mxCell id="zn88MTEEG8YuF1IfX-i7-23" value="" style="endArrow=classic;html=1;entryX=0.417;entryY=0;entryDx=0;entryDy=0;entryPerimeter=0;exitX=0.5;exitY=1;exitDx=0;exitDy=0;" edge="1" parent="1" source="zn88MTEEG8YuF1IfX-i7-7" target="zn88MTEEG8YuF1IfX-i7-11">
          <mxGeometry width="50" height="50" relative="1" as="geometry">
            <mxPoint x="300" y="110" as="sourcePoint" />
            <mxPoint x="280" y="100" as="targetPoint" />
          </mxGeometry>
        </mxCell>
        <mxCell id="zn88MTEEG8YuF1IfX-i7-24" value="" style="endArrow=classic;html=1;entryX=0.45;entryY=0;entryDx=0;entryDy=0;entryPerimeter=0;exitX=0.75;exitY=1;exitDx=0;exitDy=0;" edge="1" parent="1" source="zn88MTEEG8YuF1IfX-i7-7" target="zn88MTEEG8YuF1IfX-i7-21">
          <mxGeometry width="50" height="50" relative="1" as="geometry">
            <mxPoint x="310" y="120" as="sourcePoint" />
            <mxPoint x="280" y="100" as="targetPoint" />
          </mxGeometry>
        </mxCell>
        <mxCell id="zn88MTEEG8YuF1IfX-i7-26" value="Propmix API" style="rounded=1;whiteSpace=wrap;html=1;fillColor=none;" vertex="1" parent="1">
          <mxGeometry x="470" y="50" width="120" height="60" as="geometry" />
        </mxCell>
        <mxCell id="zn88MTEEG8YuF1IfX-i7-27" value="" style="endArrow=classic;startArrow=classic;html=1;entryX=0.25;entryY=1;entryDx=0;entryDy=0;exitX=0.617;exitY=-0.033;exitDx=0;exitDy=0;exitPerimeter=0;" edge="1" parent="1" source="zn88MTEEG8YuF1IfX-i7-11" target="zn88MTEEG8YuF1IfX-i7-26">
          <mxGeometry width="50" height="50" relative="1" as="geometry">
            <mxPoint x="385" y="160" as="sourcePoint" />
            <mxPoint x="435" y="110" as="targetPoint" />
          </mxGeometry>
        </mxCell>
        <mxCell id="zn88MTEEG8YuF1IfX-i7-28" value="" style="endArrow=classic;startArrow=classic;html=1;entryX=0.75;entryY=1;entryDx=0;entryDy=0;exitX=0.5;exitY=0;exitDx=0;exitDy=0;" edge="1" parent="1" source="zn88MTEEG8YuF1IfX-i7-21" target="zn88MTEEG8YuF1IfX-i7-26">
          <mxGeometry width="50" height="50" relative="1" as="geometry">
            <mxPoint x="395" y="170" as="sourcePoint" />
            <mxPoint x="445" y="120" as="targetPoint" />
          </mxGeometry>
        </mxCell>
        <mxCell id="zn88MTEEG8YuF1IfX-i7-29" value="" style="endArrow=classic;html=1;exitX=0.25;exitY=1;exitDx=0;exitDy=0;entryX=0;entryY=0;entryDx=25;entryDy=0;entryPerimeter=0;" edge="1" parent="1" source="zn88MTEEG8YuF1IfX-i7-21" target="zn88MTEEG8YuF1IfX-i7-14">
          <mxGeometry width="50" height="50" relative="1" as="geometry">
            <mxPoint x="230" y="280" as="sourcePoint" />
            <mxPoint x="280" y="230" as="targetPoint" />
          </mxGeometry>
        </mxCell>
        <mxCell id="zn88MTEEG8YuF1IfX-i7-30" value="" style="endArrow=classic;html=1;exitX=0.75;exitY=1;exitDx=0;exitDy=0;entryX=0;entryY=0;entryDx=25;entryDy=0;entryPerimeter=0;" edge="1" parent="1" source="zn88MTEEG8YuF1IfX-i7-21" target="zn88MTEEG8YuF1IfX-i7-31">
          <mxGeometry width="50" height="50" relative="1" as="geometry">
            <mxPoint x="500" y="240" as="sourcePoint" />
            <mxPoint x="280" y="230" as="targetPoint" />
          </mxGeometry>
        </mxCell>
        <mxCell id="zn88MTEEG8YuF1IfX-i7-31" value="listing_details" style="shape=note;whiteSpace=wrap;html=1;backgroundOutline=1;darkOpacity=0.05;fillColor=none;" vertex="1" parent="1">
          <mxGeometry x="610" y="340" width="80" height="100" as="geometry" />
        </mxCell>
      </root>
    </mxGraphModel>
  </diagram>
</mxfile>
